<!-- Generated by IcoMoon.io -->
<svg version="1.1" xmlns="http://www.w3.org/2000/svg" width="40" height="40" viewBox="0 0 40 40">
<title>github-with-circle</title>
<path d="M20.030 19.898c0 0-0.020 0-0.030 0h-0.030c-2.382 0-4.48-0.606-5.722 0.536-0.742 0.684-1.054 1.508-1.054 2.394 0 3.704 2.966 4.16 6.778 4.16h0.058c3.81 0 6.778-0.458 6.778-4.16 0-0.886-0.312-1.712-1.054-2.394-1.244-1.142-3.342-0.536-5.724-0.536zM16.786 24.96c-0.726 0-1.312-0.816-1.312-1.82s0.586-1.816 1.312-1.816c0.726 0 1.314 0.812 1.314 1.816 0.002 1.004-0.586 1.82-1.314 1.82zM23.212 24.96c-0.726 0-1.314-0.816-1.314-1.82s0.588-1.816 1.314-1.816c0.724 0 1.312 0.812 1.312 1.816 0.002 1.004-0.586 1.82-1.312 1.82zM20 0.8c-10.604 0-19.2 8.596-19.2 19.2s8.596 19.2 19.2 19.2 19.2-8.596 19.2-19.2-8.596-19.2-19.2-19.2zM21.752 27.878c-0.344 0-1.028 0-1.752 0.004-0.724-0.004-1.408-0.004-1.752-0.004-1.52 0-7.544-0.118-7.544-7.378 0-1.668 0.572-2.89 1.51-3.91-0.148-0.368-0.156-2.464 0.64-4.472 0 0 1.832 0.2 4.602 2.102 0.578-0.162 1.562-0.244 2.544-0.244s1.964 0.082 2.546 0.242c2.77-1.902 4.602-2.102 4.602-2.102 0.796 2.008 0.79 4.106 0.64 4.472 0.938 1.020 1.51 2.242 1.51 3.91-0.002 7.264-6.026 7.38-7.546 7.38z"></path>
</svg>
