<!-- Generated by IcoMoon.io -->
<svg version="1.1" xmlns="http://www.w3.org/2000/svg" width="40" height="40" viewBox="0 0 40 40">
<title>google-with-circle</title>
<path d="M20 0.8c-10.604 0-19.2 8.596-19.2 19.2s8.596 19.2 19.2 19.2 19.2-8.596 19.2-19.2-8.596-19.2-19.2-19.2zM18.894 28.242c-1.206 0.586-2.504 0.648-3.006 0.648-0.096 0-0.15 0-0.15 0s-0.046 0-0.108 0c-0.784 0-4.686-0.18-4.686-3.734 0-3.492 4.25-3.766 5.552-3.766h0.034c-0.752-1.004-0.596-2.016-0.596-2.016-0.066 0.004-0.162 0.008-0.28 0.008-0.49 0-1.436-0.078-2.248-0.602-0.996-0.64-1.5-1.73-1.5-3.238 0-4.262 4.654-4.434 4.7-4.438h4.648v0.102c0 0.52-0.934 0.622-1.57 0.708-0.216 0.032-0.65 0.074-0.772 0.136 1.178 0.63 1.368 1.618 1.368 3.090 0 1.676-0.656 2.562-1.352 3.184-0.432 0.386-0.77 0.688-0.77 1.094 0 0.398 0.464 0.804 1.004 1.278 0.882 0.778 2.092 1.836 2.092 3.622 0 1.846-0.794 3.166-2.36 3.924zM29 20h-3v3h-2v-3h-3v-2h3v-3h2v3h3v2zM16.446 22.3c-0.104 0-0.208 0.004-0.314 0.012-0.888 0.066-1.708 0.398-2.3 0.938-0.588 0.532-0.888 1.204-0.846 1.882 0.090 1.422 1.616 2.254 3.47 2.122 1.824-0.132 3.040-1.184 2.952-2.606-0.084-1.336-1.246-2.348-2.962-2.348zM18.194 14.57c-0.484-1.7-1.264-2.204-2.476-2.204-0.13 0-0.262 0.020-0.388 0.054-0.526 0.15-0.944 0.588-1.176 1.24-0.238 0.66-0.252 1.348-0.048 2.132 0.37 1.402 1.366 2.418 2.37 2.418 0.132 0 0.264-0.016 0.388-0.054 1.098-0.308 1.786-1.984 1.33-3.586z"></path>
</svg>
