<!-- Generated by IcoMoon.io -->
<svg version="1.1" xmlns="http://www.w3.org/2000/svg" width="40" height="40" viewBox="0 0 40 40">
<title>instagram-with-circle</title>
<path d="M26 20c0 3.314-2.686 6-6 6s-6-2.686-6-6c0-0.342 0.036-0.676 0.098-1h-2.098v7.994c0 0.556 0.45 1.006 1.006 1.006h13.99c0.554 0 1.004-0.45 1.004-1.006v-7.994h-2.098c0.062 0.324 0.098 0.658 0.098 1zM20 24c2.208 0 4-1.792 4-4s-1.792-4-4-4-4 1.792-4 4 1.792 4 4 4zM24.8 15.8h2.398c0.332 0 0.602-0.27 0.602-0.6v-2.398c0-0.332-0.27-0.602-0.602-0.602h-2.398c-0.332 0-0.602 0.27-0.602 0.602v2.398c0.002 0.33 0.272 0.6 0.602 0.6zM20 0.8c-10.604 0-19.2 8.596-19.2 19.2s8.596 19.2 19.2 19.2c10.604 0 19.2-8.596 19.2-19.2s-8.596-19.2-19.2-19.2zM30 27.778c0 1.222-1 2.222-2.222 2.222h-15.556c-1.222 0-2.222-1-2.222-2.222v-15.556c0-1.222 1-2.222 2.222-2.222h15.556c1.222 0 2.222 1 2.222 2.222v15.556z"></path>
</svg>
