<!-- Generated by IcoMoon.io -->
<svg version="1.1" xmlns="http://www.w3.org/2000/svg" width="40" height="40" viewBox="0 0 40 40">
<title>pinterest-with-circle</title>
<path d="M20 0.8c-10.604 0-19.2 8.596-19.2 19.2s8.596 19.2 19.2 19.2 19.2-8.596 19.2-19.2-8.596-19.2-19.2-19.2zM21.314 24.55c-1.232-0.094-1.748-0.704-2.712-1.288-0.53 2.782-1.178 5.45-3.098 6.844-0.594-4.208 0.868-7.364 1.548-10.718-1.158-1.95 0.138-5.872 2.582-4.908 3.006 1.192-2.604 7.25 1.162 8.008 3.932 0.788 5.538-6.824 3.1-9.296-3.524-3.574-10.254-0.082-9.426 5.034 0.2 1.25 1.494 1.63 0.516 3.356-2.254-0.5-2.928-2.278-2.84-4.648 0.138-3.88 3.486-6.598 6.842-6.972 4.246-0.472 8.23 1.558 8.782 5.554 0.618 4.508-1.918 9.386-6.456 9.034z"></path>
</svg>
