<!-- Generated by IcoMoon.io -->
<svg version="1.1" xmlns="http://www.w3.org/2000/svg" width="40" height="40" viewBox="0 0 40 40">
<title>twitter-with-circle</title>
<path d="M20 0.8c-10.604 0-19.2 8.596-19.2 19.2s8.596 19.2 19.2 19.2 19.2-8.596 19.2-19.2-8.596-19.2-19.2-19.2zM27.81 16.528c0.008 0.164 0.010 0.328 0.010 0.488 0 5-3.802 10.762-10.758 10.762-2.136 0-4.124-0.624-5.796-1.7 0.294 0.036 0.596 0.050 0.902 0.050 1.772 0 3.402-0.602 4.696-1.618-1.654-0.032-3.050-1.124-3.532-2.624 0.23 0.042 0.466 0.066 0.71 0.066 0.344 0 0.68-0.046 0.996-0.132-1.73-0.348-3.034-1.876-3.034-3.708v-0.046c0.51 0.282 1.094 0.454 1.714 0.474-1.016-0.68-1.682-1.836-1.682-3.15 0-0.692 0.186-1.344 0.512-1.902 1.866 2.288 4.65 3.792 7.794 3.954-0.066-0.278-0.098-0.566-0.098-0.864 0-2.086 1.692-3.782 3.782-3.782 1.086 0 2.070 0.46 2.76 1.196 0.862-0.172 1.67-0.484 2.4-0.918-0.282 0.882-0.88 1.624-1.662 2.094 0.766-0.094 1.494-0.296 2.172-0.598-0.506 0.758-1.148 1.426-1.886 1.958z"></path>
</svg>
