<?xml version="1.0" encoding="utf-8"?>
<!-- Generated by IcoMoon.io -->
<!DOCTYPE svg PUBLIC "-//W3C//DTD SVG 1.1//EN" "http://www.w3.org/Graphics/SVG/1.1/DTD/svg11.dtd">
<svg version="1.1" xmlns="http://www.w3.org/2000/svg" xmlns:xlink="http://www.w3.org/1999/xlink" width="32" height="32" viewBox="0 0 32 32">
<g id="icomoon-ignore">
	<line stroke-width="1" x1="" y1="" x2="" y2="" stroke="#449FDB" opacity=""></line>
</g>
	<path d="M8.122 4.88c0 1.701-1.256 3.078-3.322 3.078-1.944 0-3.2-1.378-3.2-3.078 0-1.741 1.298-3.078 3.282-3.078s3.2 1.338 3.24 3.078zM1.763 30.198v-19.808h6.157v19.808h-6.157zM11.605 16.709c0-2.47-0.082-4.536-0.163-6.318h5.347l0.285 2.755h0.122c0.81-1.298 2.795-3.2 6.117-3.2 4.050 0 7.088 2.714 7.088 8.547v11.707h-6.157v-10.978c0-2.552-0.893-4.294-3.12-4.294-1.701 0-2.712 1.174-3.158 2.309-0.163 0.405-0.203 0.971-0.203 1.539v11.424h-6.157v-13.491z" fill="#000000"></path>
</svg>
